<?xml version="1.0" encoding="utf-8"?>
<!-- Generator: Adobe Illustrator 23.0.3, SVG Export Plug-In . SVG Version: 6.00 Build 0)  -->
<svg version="1.1" xmlns="http://www.w3.org/2000/svg" xmlns:xlink="http://www.w3.org/1999/xlink" x="0px" y="0px"
	 viewBox="0 0 140 140" style="enable-background:new 0 0 140 140;" xml:space="preserve">
<style type="text/css">
	.st0{fill:#FFFFFF;}
	.st1{fill:#FF4459;}
</style>
<g id="Capa_2">
</g>
<g id="Capa_1">
	<circle class="st0" cx="70" cy="70" r="68"/>
	<g>
		<path class="st1" d="M98.1,58.2c-3.6-0.7-6.9,2.1-6.9,5.6v-3.5c0-2.8-1.8-5.3-4.6-5.8c-3.6-0.7-6.9,2.1-6.9,5.6v-1.3
			c0-2.8-2.2-5.3-5.1-5.3c-3.1,0-4.9,1.9-5.7,4.1v-17c0-2.7-1.8-5.2-4.5-5.8c-3.6-0.7-6.8,2.1-6.8,5.5v33.8c0,0.5-0.7,0.7-1,0.3
			c-2.1-2.9-5.4-7.2-8.6-9.4c-6.5-4.4-14.2,3.7-8.4,9.2c10.1,9.5,17.3,26.2,20,29.9c0.5,0.8,1.4,1.2,2.3,1.2h32.4
			c1.2,0,2.2-0.7,2.7-1.7c1.7-4,5.5-8.5,5.5-21.9V64C102.7,61.2,100.8,58.7,98.1,58.2z"/>
	</g>
</g>
</svg>
