<?xml version="1.0" encoding="utf-8"?>
<!-- Generator: Adobe Illustrator 23.0.3, SVG Export Plug-In . SVG Version: 6.00 Build 0)  -->
<svg version="1.1" xmlns="http://www.w3.org/2000/svg" xmlns:xlink="http://www.w3.org/1999/xlink" x="0px" y="0px"
	 viewBox="0 0 140 140" style="enable-background:new 0 0 140 140;" xml:space="preserve">
<style type="text/css">
	.st0{fill:#FFFFFF;}
	.st1{fill:#FF4459;}
</style>
<g id="Capa_2">
</g>
<g id="Capa_1">
	<circle class="st0" cx="70" cy="70" r="68"/>
	<g>
		<path class="st1" d="M96.9,59.9c-3.5-0.7-6.6,2-6.6,5.4v-3.4c0-2.7-1.8-5.2-4.4-5.7c-3-0.6-5.7,1.3-6.4,4.1L80.2,40
			c0.1-2.6-1.6-5.1-4.2-5.7c-3.5-0.8-6.6,1.8-6.7,5.1l-1,25.2l-3.6-22.7c-0.5-3-3.3-5-6.2-4.5l0,0c-3,0.5-5,3.3-4.5,6.2l4.1,25.8
			l0.7,7.3c0.1,0.5-0.6,0.8-0.9,0.4c-1.8-2.7-5.6-7.9-9.3-10.4c-6.3-4.3-13.7,3.6-8.1,8.9c9.8,9.2,16.8,25.4,19.4,29
			c0.5,0.7,1.4,1.2,2.3,1.2h31.4c1.1,0,2.1-0.7,2.6-1.7c1.6-3.9,5.3-8.2,5.3-21.2V65.6C101.3,62.9,99.5,60.4,96.9,59.9z"/>
	</g>
</g>
</svg>
