<?xml version="1.0" encoding="utf-8"?>
<!-- Generator: Adobe Illustrator 23.0.3, SVG Export Plug-In . SVG Version: 6.00 Build 0)  -->
<svg version="1.1" xmlns="http://www.w3.org/2000/svg" xmlns:xlink="http://www.w3.org/1999/xlink" x="0px" y="0px"
	 viewBox="0 0 140 140" style="enable-background:new 0 0 140 140;" xml:space="preserve">
<style type="text/css">
	.st0{fill:#FFFFFF;}
	.st1{fill:#FF4459;}
</style>
<g id="Capa_2">
</g>
<g id="Capa_1">
	<circle class="st0" cx="70" cy="70" r="68"/>
	<g>
		<path class="st1" d="M96.4,59.8c-2.6-0.3-4.8,1.2-5.8,3.4l3.1-17.9c0.4-2.6-0.9-5.3-3.3-6.3c-3.3-1.3-6.8,0.8-7.4,4.2l-3.9,22.3
			L80,40c0.1-2.6-1.6-5.1-4.2-5.7c-3.5-0.8-6.6,1.8-6.7,5.1l-0.8,25.2l-3.5-22.4c-0.4-2.6-2.5-4.7-5.2-4.8c-3.5-0.1-6.2,3-5.6,6.3
			l4.1,25.8l0.7,7.3c0.1,0.5-0.6,0.8-0.9,0.4c-1.8-2.7-5.6-7.9-9.3-10.4c-6.3-4.3-13.7,3.6-8.1,8.9c9.8,9.2,16.8,25.4,19.4,29
			c0.5,0.7,1.4,1.2,2.3,1.2h31.4c1.1,0,2.1-0.7,2.6-1.7c1.6-3.9,5.3-8.2,5.3-21.2V65.9C101.3,62.7,99.2,60.2,96.4,59.8z"/>
	</g>
</g>
</svg>
