<?xml version="1.0" encoding="utf-8"?>
<!-- Generator: Adobe Illustrator 23.0.3, SVG Export Plug-In . SVG Version: 6.00 Build 0)  -->
<svg version="1.1" xmlns="http://www.w3.org/2000/svg" xmlns:xlink="http://www.w3.org/1999/xlink" x="0px" y="0px"
	 viewBox="0 0 140 140" style="enable-background:new 0 0 140 140;" xml:space="preserve">
<style type="text/css">
	.st0{fill:#FFFFFF;}
	.st1{fill:#FF4459;}
</style>
<g id="Capa_2">
</g>
<g id="Capa_1">
	<circle class="st0" cx="70" cy="70" r="68"/>
	<g>
		<path class="st1" d="M63.6,67.5C61,69.3,58.3,73,56.9,75c-0.2,0.3-0.7,0.1-0.7-0.3l0.5-5.2l2.9-18.4c0.4-2.4-1.5-4.6-4-4.5
			c-1.9,0.1-3.4,1.6-3.7,3.5l-2.5,16.1l-0.6-18c-0.1-2.4-2.4-4.2-4.8-3.7c-1.8,0.4-3,2.2-3,4.1l0.6,18.3l-2.8-16
			c-0.4-2.4-2.9-3.9-5.3-3c-1.8,0.7-2.7,2.6-2.4,4.5l3,17.2v0.1l-3.9-12.4c-0.6-1.9-2.3-3.2-4.2-3c-2.5,0.3-4,2.8-3.3,5.1l3.4,10.7
			c0.5,2.3,1,5,1,7.4c0,9.3,1.3,14.1,2.5,16.8c0.3,0.7,1,1.2,1.9,1.2H54c0.6,0,1.2-0.3,1.6-0.8c1.9-2.6,6.9-14.2,13.9-20.8
			C73.5,70.1,68.1,64.5,63.6,67.5z"/>
		<path class="st1" d="M113.5,62.7c-2.2,0-4,1.8-4,3.9v-2.4c0-1.9-1.3-3.7-3.1-4c-2.5-0.5-4.8,1.4-4.8,3.9v-0.9c0-2-1.6-3.7-3.5-3.7
			c-2.1,0-3.4,1.3-4,2.8V50.5c0-1.9-1.3-3.6-3.1-4c-2.5-0.5-4.7,1.4-4.7,3.8v23.6c0,0.6-0.5,1.1-1.1,1.1s-1.1-0.5-1.1-1.1v-5.7
			c0-0.6-0.5-1.1-1.1-1.2c-0.3,0-0.5,0-0.8,0c-4.6,0.3-5.7,5.8-4,9.3c1.7,3.5,7.9,16.1,9.5,18.3c0.4,0.5,1,0.8,1.6,0.8h22.5
			c0.8,0,1.5-0.5,1.8-1.2c1.2-2.8,3.8-5.9,3.8-15.2c0-5.7,0-12.5,0-12.5C117.5,64.5,115.7,62.7,113.5,62.7z"/>
	</g>
</g>
</svg>
