<?xml version="1.0" encoding="utf-8"?>
<!-- Generator: Adobe Illustrator 23.0.3, SVG Export Plug-In . SVG Version: 6.00 Build 0)  -->
<svg version="1.1"
	 id="Capa_1" xmlns:cc="http://creativecommons.org/ns#" xmlns:dc="http://purl.org/dc/elements/1.1/" xmlns:inkscape="http://www.inkscape.org/namespaces/inkscape" xmlns:rdf="http://www.w3.org/1999/02/22-rdf-syntax-ns#" xmlns:sodipodi="http://sodipodi.sourceforge.net/DTD/sodipodi-0.dtd" xmlns:svg="http://www.w3.org/2000/svg"
	 xmlns="http://www.w3.org/2000/svg" xmlns:xlink="http://www.w3.org/1999/xlink" x="0px" y="0px" viewBox="0 0 11.1 11.2"
	 style="enable-background:new 0 0 11.1 11.2;" xml:space="preserve">
<style type="text/css">
	.st0{fill:#FF4459;}
	.st1{fill:#FFFFFF;}
	.st2{fill-rule:evenodd;clip-rule:evenodd;fill:#FFFFFF;}
</style>
<circle class="st0" cx="5.5" cy="5.6" r="5.3"/>
<g transform="translate(0,-288.53332)">
	<path class="st1" d="M4.7,294.3c-0.1,0-0.1-0.1-0.1-0.1l0,0c0-0.1,0.1-0.1,0.1-0.1c0,0,0,0,0,0c0.1,0,0.1,0.1,0.1,0.1l0,0
		C4.9,294.3,4.8,294.3,4.7,294.3C4.7,294.3,4.7,294.3,4.7,294.3z"/>
	<path class="st1" d="M6.1,293.7c0.1,0,0.1-0.1,0.1-0.1l0,0c0-0.1-0.1-0.1-0.1-0.1c0,0,0,0,0,0c-0.1,0-0.1,0.1-0.1,0.1l0,0
		C5.9,293.7,6,293.7,6.1,293.7C6.1,293.7,6.1,293.7,6.1,293.7z"/>
	<path class="st2" d="M3.7,294.7c-0.1,0-0.1,0-0.2,0l-1.2,0.5l-0.8,0.2l0.2,1.3c0,0,1.1-0.1,1.6,0c0.6,0,1.3,0.4,1.9,0.3
		c0.6-0.1,1.1-0.3,1.5-0.6c0,0,1.2-0.9,1.8-1.3c0.1-0.1,0.2-0.3,0.1-0.4c-0.1-0.1-0.3-0.2-0.4-0.1c-0.3,0.2-1.6,1-1.6,1l-0.2,0
		c0,0,0,0,0,0c0,0.1,0,0.3-0.1,0.4c-0.1,0.1-0.2,0.2-0.4,0.2c0,0,0,0,0,0l-1.5,0c-0.1,0-0.2-0.1-0.2-0.2c0,0,0,0,0,0l0.2,0l1.5,0
		c0.2,0,0.4-0.2,0.3-0.3c0-0.2-0.1-0.3-0.3-0.3l-1.1-0.2l-0.7-0.2C4,294.7,3.8,294.6,3.7,294.7L3.7,294.7z"/>
	<path class="st2" d="M7.6,294.3c0,0-0.1,0-0.1,0l-1.2,0.8c0,0,0,0,0,0c0,0,0.1,0.1,0.1,0.1l0.2,0c0,0,0.9-0.5,1.4-0.8c0,0,0,0,0,0
		l0,0C7.9,294.3,7.7,294.2,7.6,294.3L7.6,294.3z"/>
	<path class="st2" d="M6.9,294.1c0,0-0.1,0-0.1,0l-1.1,0.7l0.2,0c0.1,0,0.1,0,0.2,0l1.1-0.7c0,0,0,0,0,0l0,0
		C7.2,294.1,7,294.1,6.9,294.1L6.9,294.1z"/>
	<path class="st2" d="M6.1,294.1c0,0-0.1,0-0.1,0l-0.9,0.6l0.4,0.1l0.9-0.6C6.3,294.1,6.2,294.1,6.1,294.1L6.1,294.1z"/>
	<path class="st2" d="M7.4,292.9c0.1,0,0.1,0,0.2,0l1.2-0.5l0.8-0.2L9.3,291c0,0-1.1,0.1-1.6,0c-0.6,0-1.3-0.4-1.9-0.3
		c-0.6,0.1-1.1,0.3-1.5,0.6c0,0-1.2,0.9-1.8,1.3c-0.1,0.1-0.2,0.3-0.1,0.4c0.1,0.1,0.3,0.2,0.4,0.1c0.3-0.2,1.6-1,1.6-1l0.2,0
		c0,0,0,0,0,0c0-0.1,0-0.3,0.1-0.4c0.1-0.1,0.2-0.2,0.4-0.2c0,0,0,0,0,0l1.5,0c0.1,0,0.2,0.1,0.2,0.2c0,0,0,0,0,0l-0.2,0l-1.5,0
		c-0.2,0-0.4,0.2-0.3,0.3c0,0.2,0.1,0.3,0.3,0.3l1.1,0.2l0.7,0.2C7.1,292.9,7.2,292.9,7.4,292.9L7.4,292.9z"/>
	<path class="st2" d="M3.4,293.3c0,0,0.1,0,0.1,0l1.2-0.8c0,0,0,0,0,0c0,0-0.1-0.1-0.1-0.1l-0.2,0c0,0-0.9,0.5-1.4,0.8c0,0,0,0,0,0
		l0,0C3.2,293.3,3.3,293.3,3.4,293.3L3.4,293.3z"/>
	<path class="st2" d="M4.1,293.4c0,0,0.1,0,0.1,0l1.1-0.7l-0.2,0c-0.1,0-0.1,0-0.2,0l-1.1,0.7c0,0,0,0,0,0l0,0
		C3.9,293.4,4,293.5,4.1,293.4L4.1,293.4z"/>
	<path class="st2" d="M5,293.4c0,0,0.1,0,0.1,0l0.9-0.6l-0.4-0.1l-0.9,0.6C4.7,293.4,4.8,293.5,5,293.4L5,293.4z"/>
</g>
</svg>
