<?xml version="1.0" encoding="utf-8"?>
<!-- Generator: Adobe Illustrator 23.0.3, SVG Export Plug-In . SVG Version: 6.00 Build 0)  -->
<svg version="1.1" xmlns="http://www.w3.org/2000/svg" xmlns:xlink="http://www.w3.org/1999/xlink" x="0px" y="0px"
	 viewBox="0 0 160.6 159.7" style="enable-background:new 0 0 160.6 159.7;" xml:space="preserve">
<style type="text/css">
	.st0{fill:#FF4459;}
	.st1{fill:#FFFFFF;}
</style>
<g id="Capa_2">
</g>
<g id="Capa_1">
	<circle class="st0" cx="80.3" cy="79.9" r="78.3"/>
	<g>
		<path class="st1" d="M90.5,107.9c0-6.3-4.4-11.9-10.5-13.4v-7.8h8.2c2.9,0,5.2-1.9,5.9-4.8c0.7-3.3,3.6-5.7,7-5.7s6.3,2.4,7,5.7
			c0.6,2.9,3,4.8,5.9,4.8h8.2v35c0,4-3.3,7.3-7.3,7.3H80v-7.8C86.1,119.8,90.5,114.3,90.5,107.9z"/>
		<path class="st1" d="M52.3,97.3c6.3,0,11.9-4.4,13.4-10.5h7.8v8.2c0,2.8,2,5.2,4.8,5.9c3.3,0.7,5.7,3.6,5.7,7s-2.4,6.3-5.7,7
			c-2.8,0.6-4.8,3-4.8,5.9v8.2h-35c-4,0-7.3-3.3-7.3-7.3v-35h7.8C40.4,92.9,45.9,97.3,52.3,97.3z"/>
		<path class="st1" d="M38.4,37.9h35v7.8C67.3,47.2,63,52.8,63,59.1S67.4,71,73.5,72.5v7.8h-8.2c-2.8,0-5.2,2-5.8,4.8
			c-0.7,3.3-3.6,5.7-7,5.7c-3.4,0-6.3-2.4-7-5.7c-0.6-2.8-3-4.8-5.8-4.8h-8.5V45.2C31.1,41.2,34.4,37.9,38.4,37.9z"/>
		<path class="st1" d="M108.4,62.4c-6.3,0-11.9,4.4-13.4,10.5h-7.8v-8.2c0-2.8-2-5.2-4.8-5.8c-3.3-0.7-5.7-3.6-5.7-7
			c0-3.4,2.4-6.3,5.7-7c2.9-0.6,4.8-3,4.8-5.8v-8.4h35c4,0,7.3,3.3,7.3,7.3v35h-7.8C120.3,66.9,114.7,62.4,108.4,62.4z"/>
	</g>
</g>
</svg>
