<?xml version="1.0" encoding="utf-8"?>
<!-- Generator: Adobe Illustrator 23.0.3, SVG Export Plug-In . SVG Version: 6.00 Build 0)  -->
<svg version="1.1" id="Capa_1" xmlns="http://www.w3.org/2000/svg" xmlns:xlink="http://www.w3.org/1999/xlink" x="0px" y="0px"
	 viewBox="0 0 88.5 89.6" style="enable-background:new 0 0 88.5 89.6;" xml:space="preserve">
<style type="text/css">
	.st0{fill:#FF4459;}
	.st1{fill:#FFFFFF;}
</style>
<circle class="st0" cx="44.2" cy="44.8" r="42.6"/>
<g>
	<path class="st1" d="M43,37.8c-1.9-0.1-3.5-1.6-3.7-3.5l0,0c-0.3-0.3-0.6-0.4-1-0.4c-0.6,0-1,0.4-1,1h-2c0-1.7,1.3-3,3-3
		c0.5,0,1,0.1,1.4,0.3c0.1-0.3,0.3-0.5,0.5-0.7l-0.4-1.6l-8.1,0c0,0,0,0,0,0c-1.2,0-2.3-0.5-3.1-1.3c-0.2-0.2-0.4-0.5-0.6-0.8
		l-0.7,0.4c-1.2,0.7-1.9,2-1.9,3.4v4.2c0,5,4,9,9,9C38.5,44.8,42.1,41.8,43,37.8z M27.3,34.8c0-1.7,1.3-3,3-3s3,1.3,3,3h-2
		c0-0.6-0.4-1-1-1s-1,0.4-1,1H27.3z M39.1,39.3c-0.7,2.1-2.7,3.5-4.9,3.5c-2.2,0-4.2-1.4-4.9-3.5l-0.1-0.2l1.9-0.6l0.1,0.2
		c0.4,1.3,1.6,2.2,3,2.2c1.4,0,2.6-0.9,3-2.2l0.1-0.2l1.9,0.6L39.1,39.3z"/>
	<polygon class="st1" points="47.9,49 49.7,53.2 52.5,50.9 49,48.8 	"/>
	<path class="st1" d="M58.2,47.3l-0.5-3c-1.1,0.3-2.2,0.5-3.4,0.5s-2.3-0.2-3.4-0.5l-0.5,3l3.9,2.3L58.2,47.3z"/>
	<polygon class="st1" points="60.7,49 59.5,48.8 56,50.9 58.8,53.2 	"/>
	<path class="st1" d="M63.3,27.3c-0.9,0.3-1.9,0.5-3,0.5h-8.5c-1.6,0-3-0.8-3.8-2.1l-0.8,0.5c-1.2,0.7-1.9,2-1.9,3.4v4.2
		c0,5,4,9,9,9s9-4,9-9V27.3z M49.3,32.8h-2c0-1.7,1.3-3,3-3s3,1.3,3,3h-2c0-0.6-0.4-1-1-1S49.3,32.2,49.3,32.8z M54.3,39.8
		c-2.2,0-4-1.8-4-4h8C58.3,38,56.5,39.8,54.3,39.8z M59.3,32.8c0-0.6-0.4-1-1-1s-1,0.4-1,1h-2c0-1.7,1.3-3,3-3s3,1.3,3,3H59.3z"/>
	<polygon class="st1" points="28.6,50.9 29.8,55.1 32.5,52.9 29,50.8 	"/>
	<path class="st1" d="M37.5,46.3c-1,0.3-2.1,0.5-3.3,0.5c-1.1,0-2.2-0.2-3.3-0.5l-0.6,3l3.9,2.3l3.9-2.3L37.5,46.3z"/>
	<path class="st1" d="M65.3,44.2c-0.7-0.2-1.4-0.1-2,0.5C63,45,62.8,45.5,62.8,46v1.3l2.1,0.3c1.8,0.2,3.6,0.9,5,1.9l2.5-2.5
		c0.6-0.6,0.9-1.3,0.9-2.1s-0.3-1.6-0.9-2.1c-1.2-1.2-3.1-1.2-4.2,0l-1.9,1.9L65.3,44.2z"/>
	<path class="st1" d="M38.7,67.8h0.6c0.7,0,1.4,0.2,2,0.6l0-4.6h-6v2c1,0,1.9,0.4,2.5,1.1L38.7,67.8z"/>
	<path class="st1" d="M43.3,35.8h0.2c-0.1-0.6-0.2-1.3-0.2-2v-2c-1.1,0-2,0.9-2,2S42.1,35.8,43.3,35.8z"/>
	<rect x="67.3" y="63.8" class="st1" width="6" height="2"/>
	<path class="st1" d="M65.3,33.8c0,0.7-0.1,1.4-0.2,2h0.2c1.1,0,2-0.9,2-2s-0.9-2-2-2V33.8z"/>
	<path class="st1" d="M20.8,24.7c-0.5,0.4-1,1-1.3,1.8c-0.1,0.4-0.2,0.8-0.2,1.3c0,2.2,1.8,4,4,4v-0.2c0-2.1,1.1-4.1,2.9-5.1
		l1.1-0.7c0-0.1,0-0.3,0-0.4c0-2,1.3-3.7,3.2-4.4l0.5-0.2l0.6,1.9L31,22.9c-1.1,0.4-1.8,1.4-1.8,2.5c0,0.6,0.3,1.2,0.7,1.7
		s1.1,0.7,1.7,0.7l0,0l7.7,0c-0.1-0.5-0.1-0.9-0.1-1.4c0-2,0.5-3.8,1.3-5.5c-1.6-0.7-3.2-1.1-4.9-1.1h-3.2L32.2,19
		c-0.4-1.9-2-3.2-3.9-3.2c-1.4,0-2.5,0.5-3.2,1.2c-0.4,0.4-0.7,0.8-0.9,1.1c-0.7-0.8-1.8-1.3-2.9-1.3c-2.2,0-4,1.8-4,4
		C17.3,22.8,18.8,24.5,20.8,24.7z"/>
	<path class="st1" d="M21.3,35.8c0,1.1,0.9,2,2,2h0.2c-0.1-0.6-0.2-1.3-0.2-2v-2C22.1,33.8,21.3,34.7,21.3,35.8z"/>
	<path class="st1" d="M39.3,69.8h-1.4l-1.5-1.5c-0.3-0.3-0.8-0.5-1.3-0.5c-0.7,0-1.4,0.4-1.7,1.1l-0.5,0.9h-7.8
		c-1.6,0-3,0.6-4.1,1.7l-1.4-1.4c0.5-0.5,1.1-0.9,1.7-1.3l0-1h-6v1c0,1.3,0.5,2.6,1.5,3.5c0.9,0.9,2.2,1.5,3.5,1.5h19
		c1.1,0,2-0.9,2-2C41.3,70.7,40.4,69.8,39.3,69.8z"/>
	<path class="st1" d="M21.3,63c0-1.3-0.3-2.6-0.9-3.8l1.8-0.9c0.7,1.5,1.1,3.1,1.1,4.7l0,5c0.6-0.1,1.2-0.2,1.8-0.2h6.6
		c0.4-0.7,0.9-1.2,1.6-1.6v-6.8c0-2.1,0.5-4,1.5-5.7l-6,4.8l-2.1-7.4l-3.2,0.4c-1.8,0.2-3.5,0.9-4.9,2.1c-2.1,1.7-3.3,4.3-3.3,7v5.2
		h6L21.3,63z"/>
	<path class="st1" d="M64.6,49.5l-1.9-0.2l-3.1,7.1l-4.4-3.5l0,6.9l-2,0l0-6.9l-4.4,3.5l-3.1-7.1l-1.9,0.2c-4.9,0.7-8.7,4.9-8.7,9.9
		v2.4h6V61c0-1.3-0.3-2.6-0.9-3.8l1.8-0.9c0.7,1.4,1.1,3.1,1.1,4.7l0,10.8c0,0.7-0.2,1.4-0.6,2h22.6l0-12.8c0-1.6,0.4-3.2,1.1-4.7
		l1.8,0.9c-0.6,1.2-0.9,2.5-0.9,3.8v0.8h6v-2.4C73.3,54.4,69.5,50.2,64.6,49.5z"/>
	<path class="st1" d="M67.3,25.6v-1.2c-0.6,0.7-1.2,1.3-2,1.8v3.5c0.5,0,1,0.1,1.5,0.3C67.1,28.6,67.3,27.1,67.3,25.6z"/>
	<path class="st1" d="M41.8,30.1c0.4-0.2,0.9-0.3,1.4-0.3v-0.2c0-2.1,1.1-4.1,2.9-5.1l1.1-0.7c0-0.2-0.1-0.3-0.1-0.5
		c0-1.9,1.2-3.6,3.1-4.3l0.6-0.2l0.6,1.9L51,21c-1,0.3-1.7,1.3-1.7,2.4c0,1.4,1.1,2.5,2.5,2.5h8.5c3.9,0,7-3.1,7-7v-2
		c0-0.6-0.4-1-1-1H51.8c-5.8,0-10.6,4.7-10.6,10.6c0,0.9,0.1,1.7,0.3,2.6L41.8,30.1z"/>
	<rect x="67.3" y="67.8" class="st1" width="6" height="6"/>
</g>
</svg>
