<?xml version="1.0" encoding="utf-8"?>
<!-- Generator: Adobe Illustrator 23.0.3, SVG Export Plug-In . SVG Version: 6.00 Build 0)  -->
<svg version="1.1" id="Capa_1" xmlns="http://www.w3.org/2000/svg" xmlns:xlink="http://www.w3.org/1999/xlink" x="0px" y="0px"
	 viewBox="0 0 114.2 116.7" style="enable-background:new 0 0 114.2 116.7;" xml:space="preserve">
<style type="text/css">
	.st0{fill:#FF4459;}
	.st1{fill:#FFFFFF;}
</style>
<g>
	<circle class="st0" cx="57.1" cy="58.4" r="56"/>
	<g>
		<path class="st1" d="M92.8,52.5l-7.5-2c-1.1-2.6-1.6-3.7-2.6-6.4l3.9-6.8c0.5-1,0.4-2.1-0.4-2.8l-5.1-5.1c-0.8-0.8-2-1-2.8-0.4
			l-6.8,3.9c-2.6-1.1-3.7-1.6-6.4-2.6l-2-7.5c-0.4-1.1-1.2-1.8-2.3-1.8h-7.3c-1.1,0-2,0.7-2.3,1.8l-2,7.5c-2.6,1.1-3.7,1.6-6.4,2.6
			L36,29c-1-0.5-2.1-0.4-2.8,0.4l-5.1,5.1c-0.8,0.8-1,2-0.4,2.8l3.9,6.8c-1.1,2.6-1.6,3.7-2.6,6.4l-7.5,2c-1.1,0.4-1.8,1.2-1.8,2.3
			v7.2c0,1.1,0.7,2,1.8,2.3l7.5,2c1.1,2.6,1.6,3.7,2.6,6.4l-3.9,6.8c-0.5,1-0.4,2.1,0.4,2.8l5.1,5.1c0.8,0.8,2,1,2.8,0.4l6.8-3.9
			c2.6,1.1,3.7,1.6,6.4,2.6l2,7.5c0.4,1.1,1.2,1.8,2.3,1.8h7.2c1.1,0,2-0.7,2.3-1.8l2-7.5c2.6-1.1,3.7-1.6,6.4-2.6l6.8,3.9
			c1,0.5,2.1,0.4,2.8-0.4l5.1-5.1c0.8-0.8,1-2,0.4-2.8l-3.9-6.8c1.1-2.6,1.6-3.7,2.6-6.4l7.5-2c1.1-0.4,1.8-1.2,1.8-2.3v-7.2
			C94.6,53.7,93.8,52.8,92.8,52.5z M57,76.7c-10.1,0-18.4-8.2-18.4-18.4S46.9,40,57,40s18.4,8.2,18.4,18.4S67.1,76.7,57,76.7z"/>
		<path class="st1" d="M65.4,60.6L59.7,57v-9.2c0-1.5-1.2-2.7-2.7-2.7c-1.5,0-2.7,1.2-2.7,2.7v10.6c0,1,0.4,1.8,1.2,2.3l6.9,4.4
			c0.4,0.4,1,0.4,1.4,0.4c0.9,0,1.8-0.4,2.3-1.2C67,63.1,66.6,61.4,65.4,60.6z"/>
	</g>
</g>
</svg>
