<?xml version="1.0" encoding="utf-8"?>
<!-- Generator: Adobe Illustrator 23.0.3, SVG Export Plug-In . SVG Version: 6.00 Build 0)  -->
<svg version="1.1" id="Capa_1" xmlns="http://www.w3.org/2000/svg" xmlns:xlink="http://www.w3.org/1999/xlink" x="0px" y="0px"
	 viewBox="0 0 96.4 94.1" style="enable-background:new 0 0 96.4 94.1;" xml:space="preserve">
<style type="text/css">
	.st0{fill:#FF4459;}
	.st1{fill:#FFFFFF;}
</style>
<circle class="st0" cx="48.2" cy="47.1" r="45.5"/>
<g>
	<path d="M33.5,74c0,1.3-1.1,2.5-2.5,2.5h-9.8c-1.3,0-2.5-1.1-2.5-2.5v-9.8c0-1.3,1.1-2.5,2.5-2.5h9.8c1.3,0,2.5,1.1,2.5,2.5V74z"/>
	<path d="M53.1,74c0,1.3-1.1,2.5-2.5,2.5h-9.8c-1.3,0-2.5-1.1-2.5-2.5v-9.8c0-1.3,1.1-2.5,2.5-2.5h9.8c1.3,0,2.5,1.1,2.5,2.5V74z"/>
	<path d="M72.7,74c0,1.3-1.1,2.5-2.5,2.5h-9.8c-1.3,0-2.5-1.1-2.5-2.5v-9.8c0-1.3,1.1-2.5,2.5-2.5h9.8c1.3,0,2.5,1.1,2.5,2.5V74z"/>
	<path d="M33.5,54.4c0,1.3-1.1,2.5-2.5,2.5h-9.8c-1.3,0-2.5-1.1-2.5-2.5v-9.8c0-1.3,1.1-2.5,2.5-2.5h9.8c1.3,0,2.5,1.1,2.5,2.5V54.4
		z"/>
	<path d="M53.1,54.4c0,1.3-1.1,2.5-2.5,2.5h-9.8c-1.3,0-2.5-1.1-2.5-2.5v-9.8c0-1.3,1.1-2.5,2.5-2.5h9.8c1.3,0,2.5,1.1,2.5,2.5V54.4
		z"/>
	<path d="M66.1,58.2c-1.2,0.5-2.7-0.1-3.2-1.3l-3.8-9.1c-0.5-1.2,0.1-2.7,1.3-3.2l9.1-3.8c1.2-0.5,2.7,0.1,3.2,1.3l3.8,9.1
		c0.5,1.2-0.1,2.7-1.3,3.2L66.1,58.2z"/>
	<path d="M33.5,34.8c0,1.3-1.1,2.5-2.5,2.5h-9.8c-1.3,0-2.5-1.1-2.5-2.5V25c0-1.3,1.1-2.5,2.5-2.5h9.8c1.3,0,2.5,1.1,2.5,2.5V34.8z"
		/>
	<path d="M50.7,37.3c-0.5,1.2-2,1.8-3.2,1.3l-9.1-3.8c-1.2-0.5-1.8-2-1.3-3.2l3.8-9.1c0.5-1.2,2-1.8,3.2-1.3l9.1,3.8
		c1.2,0.5,1.8,2,1.3,3.2L50.7,37.3z"/>
	<path d="M76.9,25.3c1,1,1,2.5,0,3.5L70,35.7c-1,1-2.5,1-3.5,0l-6.9-6.9c-1-1-1-2.5,0-3.5l6.9-6.9c1-1,2.5-1,3.5,0L76.9,25.3z"/>
</g>
<g>
	<path class="st1" d="M33.5,74c0,1.3-1.1,2.5-2.5,2.5h-9.8c-1.3,0-2.5-1.1-2.5-2.5v-9.8c0-1.3,1.1-2.5,2.5-2.5h9.8
		c1.3,0,2.5,1.1,2.5,2.5V74z"/>
	<path class="st1" d="M53.1,74c0,1.3-1.1,2.5-2.5,2.5h-9.8c-1.3,0-2.5-1.1-2.5-2.5v-9.8c0-1.3,1.1-2.5,2.5-2.5h9.8
		c1.3,0,2.5,1.1,2.5,2.5V74z"/>
	<path class="st1" d="M72.7,74c0,1.3-1.1,2.5-2.5,2.5h-9.8c-1.3,0-2.5-1.1-2.5-2.5v-9.8c0-1.3,1.1-2.5,2.5-2.5h9.8
		c1.3,0,2.5,1.1,2.5,2.5V74z"/>
	<path class="st1" d="M33.5,54.4c0,1.3-1.1,2.5-2.5,2.5h-9.8c-1.3,0-2.5-1.1-2.5-2.5v-9.8c0-1.3,1.1-2.5,2.5-2.5h9.8
		c1.3,0,2.5,1.1,2.5,2.5V54.4z"/>
	<path class="st1" d="M53.1,54.4c0,1.3-1.1,2.5-2.5,2.5h-9.8c-1.3,0-2.5-1.1-2.5-2.5v-9.8c0-1.3,1.1-2.5,2.5-2.5h9.8
		c1.3,0,2.5,1.1,2.5,2.5V54.4z"/>
	<path class="st1" d="M66.1,58.2c-1.2,0.5-2.7-0.1-3.2-1.3l-3.8-9.1c-0.5-1.2,0.1-2.7,1.3-3.2l9.1-3.8c1.2-0.5,2.7,0.1,3.2,1.3
		l3.8,9.1c0.5,1.2-0.1,2.7-1.3,3.2L66.1,58.2z"/>
	<path class="st1" d="M33.5,34.8c0,1.3-1.1,2.5-2.5,2.5h-9.8c-1.3,0-2.5-1.1-2.5-2.5V25c0-1.3,1.1-2.5,2.5-2.5h9.8
		c1.3,0,2.5,1.1,2.5,2.5V34.8z"/>
	<path class="st1" d="M50.7,37.3c-0.5,1.2-2,1.8-3.2,1.3l-9.1-3.8c-1.2-0.5-1.8-2-1.3-3.2l3.8-9.1c0.5-1.2,2-1.8,3.2-1.3l9.1,3.8
		c1.2,0.5,1.8,2,1.3,3.2L50.7,37.3z"/>
	<path class="st1" d="M76.9,25.3c1,1,1,2.5,0,3.5L70,35.7c-1,1-2.5,1-3.5,0l-6.9-6.9c-1-1-1-2.5,0-3.5l6.9-6.9c1-1,2.5-1,3.5,0
		L76.9,25.3z"/>
</g>
</svg>
