<?xml version="1.0" encoding="utf-8"?>
<!-- Generator: Adobe Illustrator 23.0.3, SVG Export Plug-In . SVG Version: 6.00 Build 0)  -->
<svg version="1.1" id="Capa_1" xmlns="http://www.w3.org/2000/svg" xmlns:xlink="http://www.w3.org/1999/xlink" x="0px" y="0px"
	 viewBox="0 0 137.2 140.4" style="enable-background:new 0 0 137.2 140.4;" xml:space="preserve">
<style type="text/css">
	.st0{fill:#FF4459;}
	.st1{fill:#FFFFFF;}
</style>
<g>
	<circle class="st0" cx="68.6" cy="70.2" r="66.7"/>
</g>
<g transform="translate(0,-284.29998)">
	<path class="st1" d="M83.8,327.9c-2.7,0-5,2.1-5.3,4.8c-0.6,7.6,1.2,15.2,5,21.8c0.3,0.5,0.2,1-0.3,1.4l-9.4,7.1l0,0
		c-0.4,0.3-0.9,0.3-1.3,0l-12.9-10.3c-2.9-2.3-6.9-2.3-9.8,0l-25.2,20h-4.3c-3.6,0-6.5,3-6.5,6.6c0,3.6,2.9,6.5,6.5,6.5h51.4
		c2.4,0,4.7-0.8,6.6-2.3l27.6-22.2h13.4c2.9,0,5.2-2.3,5.2-5.2c0-0.2,0-0.3,0-0.5c-0.6-6.3-2.6-12.3-5.8-17.7
		c-1.2,3.7-4.1,6.5-7.8,7.6c0.8,1.7,1.5,3.5,2,5.4H107c-2.6-4.6-8.4-6.2-13-3.6c-0.7,0.4-1.3,0.8-1.8,1.4c-1.6-3-2.6-6.2-3-9.6
		c3.1,0.4,6.1,1,9.1,1.8c-2.2-3.3-2.6-7.4-1-11C92.9,328.6,88.4,328,83.8,327.9C83.9,327.9,83.8,327.9,83.8,327.9L83.8,327.9z
		 M54.8,365.5l8.9,7.1H45.8L54.8,365.5z"/>
	<path class="st1" d="M118.2,334.2c0.1-5.7-4.4-10.4-10.1-10.5c-5.7-0.1-10.4,4.4-10.5,10.1c0,0.1,0,0.3,0,0.4
		c-0.1,5.7,4.4,10.4,10.1,10.5c5.7,0.1,10.4-4.4,10.5-10.1C118.2,334.4,118.2,334.3,118.2,334.2z"/>
</g>
</svg>
