<?xml version="1.0" encoding="utf-8"?>
<!-- Generator: Adobe Illustrator 23.0.3, SVG Export Plug-In . SVG Version: 6.00 Build 0)  -->
<svg version="1.1" id="Capa_1" xmlns="http://www.w3.org/2000/svg" xmlns:xlink="http://www.w3.org/1999/xlink" x="0px" y="0px"
	 viewBox="0 0 150 150" style="enable-background:new 0 0 150 150;" xml:space="preserve">
<style type="text/css">
	.st0{fill:#13BEEA;stroke:#13BEEA;stroke-miterlimit:10;}
	.st1{fill:#13BEEA;stroke:#13BEEA;stroke-width:2;stroke-miterlimit:10;}
	.st2{fill:#13BEEA;stroke:#13BEEA;stroke-width:3;stroke-miterlimit:10;}
	.st3{fill:#13BEEA;}
	.st4{fill:#FF4459;}
	.st5{fill:#FF4459;stroke:#13BEEA;stroke-width:4;stroke-miterlimit:10;}
	.st6{fill:none;}
	.st7{enable-background:new    ;}
	.st8{fill:#FFFFFF;stroke:#FFFFFF;stroke-width:2;stroke-miterlimit:10;}
	.st9{fill:#FFFFFF;stroke:#FFFFFF;stroke-width:0.75;stroke-miterlimit:10;}
	.st10{fill:#FFFFFF;stroke:#FFFFFF;stroke-miterlimit:10;}
</style>
<g>
	<path class="st0" d="M128.1,145.7c-0.4,0-0.8-0.2-1.2-0.5L4.1,22.4c-0.7-0.7-0.7-1.8,0-2.5s1.8-0.7,2.5,0l122.7,122.7
		c0.7,0.7,0.7,1.8,0,2.5C129,145.6,128.5,145.7,128.1,145.7z"/>
</g>
<g>
	<path class="st1" d="M14.1,142.8c-0.5,0-0.9-0.2-1.2-0.6c-0.7-0.7-0.7-1.8,0-2.5L138.1,14.4c0.7-0.7,1.8-0.7,2.5,0
		c0.7,0.7,0.7,1.8,0,2.5L15.3,142.3C15.1,142.5,14.6,142.8,14.1,142.8z"/>
</g>
<g>
	<path class="st2" d="M131.4,127.7c-0.5,0-0.9-0.2-1.3-0.6L20.9,17.9c-0.7-0.7-0.7-1.9,0-2.6s1.9-0.7,2.6,0l109.2,109.2
		c0.7,0.7,0.7,1.9,0,2.6C132.3,127.4,131.9,127.7,131.4,127.7z"/>
</g>
<g>
	<path class="st3" d="M23.5,116.8c-0.5,0-0.8-0.2-1.2-0.6c-0.6-0.6-0.6-1.8,0-2.4l99.2-99.2c0.6-0.6,1.8-0.6,2.4,0
		c0.6,0.6,0.6,1.8,0,2.4l-99.2,99.2C24.3,116.5,23.8,116.8,23.5,116.8z"/>
</g>
<g>
	<circle class="st4" cx="74.5" cy="76.4" r="66.7"/>
	<path class="st5" d="M74.5,144.5C37,144.5,6.4,114,6.4,76.4S37,8.3,74.5,8.3s68.1,30.6,68.1,68.1S112,144.5,74.5,144.5z M74.5,11.1
		c-36,0-65.3,29.3-65.3,65.3s29.3,65.3,65.3,65.3s65.3-29.3,65.3-65.3S110.5,11.1,74.5,11.1z"/>
</g>
<g>
	<rect x="3.5" y="41.4" class="st6" width="142" height="75.7"/>
</g>
<g class="st7">
	<path class="st8" d="M56.8,48.5c-0.3,0.3-1.1,0.8-2.7,1.5c-1.4,0.8-3.2,1.9-4.9,3.3c-4.9,3.5-8.8,7.3-11.6,11.5
		c4.3,0.1,7.2,0.3,8.8,0.5c3.5,0.5,6.3,1.9,8.5,4c2.1,2.3,3.2,5.3,3.2,9.6c0,4.2-1.4,7.7-4.3,10.4c-2.9,2.7-6.7,4-11.4,4
		c-6.4,0-10.7-2.4-12.9-7.3c-0.8-1.8-1.3-4.2-1.3-7.2c0-3,0.6-6.1,1.8-9c1.3-3,2.8-5.7,4.5-8.2C39,55.5,45.7,50,54.8,44.9L56.8,48.5
		z M35.4,68.8c-1.5,3.4-2.3,6.8-2.3,10.5s0.9,6.2,2.8,7.7c1.9,1.6,3.8,2.3,5.8,2.3c3.7,0,6.4-1,8.3-3c1.9-2,2.9-4.5,2.9-7.5
		s-0.8-5.2-2.1-6.7c-1.4-1.5-3.3-2.5-5.4-2.8C44.3,68.9,40.9,68.8,35.4,68.8z"/>
	<path class="st8" d="M63.5,68.7c0-8.1,1.8-14.4,5.6-18.9c3.8-4.5,8.2-6.7,13.6-6.7c5.6,0,10.2,2.1,13.8,6.3
		c3.5,4.2,5.4,10.4,5.4,18.3s-1.8,14.3-5.6,18.8c-3.7,4.5-8.2,6.7-13.6,6.7c-5.7,0-10.1-1.9-13.5-5.8C65.4,83.1,63.5,76.8,63.5,68.7
		z M72.7,84.3c2.5,3.3,5.8,4.8,10,4.8c3.9,0,7.3-1.9,10.1-5.7c2.8-3.8,4.2-9.1,4.2-15.7s-1.3-11.7-4-15.4c-3.9-3.2-7.3-4.9-10.2-5.3
		c-3.9,0-7.3,1.9-10.1,5.7c-2.8,3.8-4.2,9.1-4.2,15.8C68.4,75.4,69.8,80.7,72.7,84.3z"/>
</g>
<g class="st7">
	<path class="st9" d="M105.4,51.1c-0.2-0.6-0.3-1.1-0.3-1.8c0-1.2,0.3-2.4,1.1-3.1c0.8-0.8,1.8-1.2,2.9-1.2c2.8,0,4.2,1.5,4.2,4.2
		c0,1.1-0.4,2.1-1.2,2.9c-0.8,0.8-1.8,1.1-2.9,1.1C107.3,53.2,106,52.6,105.4,51.1z M121.8,45.6L108.7,63h-2l13-17.4H121.8z
		 M109.3,46.2c-0.8,0-1.5,0.2-2,0.8s-0.8,1.2-0.8,2.1s0.2,1.6,0.8,2s1.1,0.7,2,0.7s1.5-0.2,2-0.8s0.8-1.2,0.8-2.1s-0.2-1.6-0.8-2
		C110.8,46.4,110,46.2,109.3,46.2z M115.6,61c-0.2-0.6-0.3-1.1-0.3-1.9c0-1.2,0.3-2.2,1.1-3.1c0.8-0.8,1.8-1.2,2.9-1.2
		c2.8,0,4.2,1.5,4.2,4.2c0,1.1-0.4,2.1-1.2,2.9c-0.8,0.8-1.8,1.1-2.9,1.1C117.4,63.2,116.1,62.4,115.6,61z M119.5,56.2
		c-0.8,0-1.5,0.2-2,0.8s-0.8,1.2-0.8,2.1s0.2,1.6,0.8,2s1.1,0.7,2,0.7s1.5-0.2,2-0.8s0.8-1.2,0.8-2.1s-0.2-1.6-0.8-2
		C120.9,56.4,120.1,56.2,119.5,56.2z"/>
</g>
<g>
	<rect x="4.5" y="94.4" class="st6" width="142" height="13.3"/>
</g>
<g class="st7">
	<path class="st10" d="M29.2,101.8h3.3c2.5,0,4.2,1.1,4.9,3.3c0.3,0.8,0.4,1.8,0.4,3c0,1.3-0.1,2.3-0.4,3.3c-0.3,0.9-0.8,1.5-1.3,2
		c-0.5,0.5-1.1,0.8-1.8,1c-0.6,0.3-1.5,0.3-2.4,0.3h-2.8L29.2,101.8L29.2,101.8z M30.3,102.8v10.6h1.5c0.6,0,1.3-0.1,1.8-0.3
		c1.9-0.3,2.9-2.1,2.9-5.3c0-1.8-0.4-3.3-1.3-4c-0.8-0.8-1.8-1.1-3-1.1L30.3,102.8L30.3,102.8z"/>
	<path class="st10" d="M46.5,102.9h-5.2v4.7h4.9l-0.1,1.1h-4.8v4.7H47l-0.1,1.1H40v-12.6h6.7L46.5,102.9z"/>
	<path class="st10" d="M56.1,102l-0.3,1c-0.9-0.3-1.8-0.3-2.4-0.3c-2.3,0-3.5,0.8-3.5,2.1c0,0.5,0.3,1,0.5,1.3
		c0.3,0.3,0.8,0.5,1.3,0.8s1.1,0.4,1.8,0.5s1.3,0.4,1.8,0.6c1.3,0.6,1.8,1.5,1.8,2.8c0,1.3-0.5,2.3-1.4,2.8
		c-0.8,0.6-1.8,0.8-3.2,0.8c-1.6,0-3-0.4-4.2-1.1l0.5-0.9c0.3,0.3,0.8,0.4,1.4,0.6c0.6,0.3,1.3,0.3,1.8,0.3c1.1,0,2-0.3,2.7-0.5
		c0.8-0.4,1.3-1.1,1.3-1.9c0-0.6-0.3-1.1-0.5-1.4c-0.3-0.3-0.8-0.6-1.3-0.8c-0.5-0.3-1.1-0.4-1.8-0.5c-0.6-0.3-1.3-0.3-1.8-0.6
		c-1.3-0.5-1.8-1.3-1.8-2.4s0.4-1.9,1.1-2.5c0.8-0.6,1.8-0.9,3.2-0.9C53.9,101.8,55.1,101.9,56.1,102z"/>
	<path class="st10" d="M66.3,103c-0.6-0.3-1.3-0.4-1.9-0.4c-1.4,0-2.5,0.5-3.3,1.5c-0.8,1-1.3,2.5-1.3,4.4s0.4,3.3,1.3,4
		c0.6,0.5,1.4,0.8,2.5,0.8c0.8,0,1.4-0.1,2.1-0.3c0.8-0.3,1.3-0.3,1.4-0.4l0.3,0.9c-0.5,0.3-1.5,0.6-2.8,0.8c-0.4,0-0.8,0.1-1.3,0.1
		c-0.4,0-0.9-0.1-1.5-0.3c-0.6-0.1-1.1-0.4-1.6-0.8c-1.1-0.9-1.8-2.5-1.8-4.7c0-2.3,0.5-3.9,1.6-5.2c1-1.3,2.4-1.8,4.2-1.8
		c0.9,0,1.8,0.3,2.4,0.6c0.3,0.1,0.5,0.3,0.6,0.4v2.7l-0.9-0.1L66.3,103z"/>
	<path class="st10" d="M78.7,101.8v7.2c0,1.9-0.4,3.3-1.3,4.2c-0.8,0.8-1.9,1.3-3.3,1.3s-2.4-0.3-3.2-1c-1-0.9-1.4-2.4-1.4-4.5v-7.2
		h1.3v7.2c0,1.8,0.4,3,1.1,3.7c0.5,0.5,1.3,0.8,2.3,0.8c1.5,0,2.5-0.8,3-2.4c0.3-0.6,0.3-1.3,0.3-2.1v-7.2L78.7,101.8L78.7,101.8z"
		/>
	<path class="st10" d="M87.8,102.9h-5.2v4.7h4.9l-0.1,1.1h-4.8v4.7h5.7l-0.1,1.1h-6.8v-12.6H88L87.8,102.9z"/>
	<path class="st10" d="M98.4,114.4l-7.2-11l0.1,11.1h-1.1v-12.6h1.3l7.2,11.1l-0.1-11.1h1.1v12.6L98.4,114.4L98.4,114.4z"/>
	<path class="st10" d="M105,114.4v-11.6h-3.7l0.1-1.1h8.2l-0.1,1.1H106v11.6H105z"/>
	<path class="st10" d="M116.2,101.7c3.5,0,5.3,2.1,5.3,6.4c0,2-0.5,3.5-1.5,4.7c-1,1.1-2.3,1.8-3.8,1.8c-1.6,0-2.9-0.4-3.8-1.3
		c-1-1.1-1.5-2.7-1.5-4.8c0-2.3,0.5-3.8,1.5-4.9C113.4,102.3,114.7,101.7,116.2,101.7z M113.3,112.3c0.8,0.8,1.6,1.1,2.9,1.1
		c1.3,0,2.3-0.5,2.9-1.4c0.8-0.9,1.3-2.3,1.3-4.2c0-1.9-0.4-3.2-1.3-4c-0.8-0.8-1.6-1.1-2.9-1.1c-1.3,0-2.3,0.5-2.9,1.4
		c-0.8,0.9-1.3,2.3-1.3,4.2C112,110.1,112.5,111.4,113.3,112.3z"/>
</g>
</svg>
