<svg id="Capa_1" data-name="Capa 1" xmlns="http://www.w3.org/2000/svg" viewBox="0 0 125 43.91"><defs><style>.cls-1{fill:#262d2d;}</style></defs><title>pintarnumeros</title><path class="cls-1" d="M5.77,27.53v-9.1h4.35A1.86,1.86,0,0,1,12,20.29v2.3a1.84,1.84,0,0,1-1.84,1.84H7v3.1a.61.61,0,0,1-.61.61A.61.61,0,0,1,6,28,.58.58,0,0,1,5.77,27.53ZM7,23.2h3.11a.58.58,0,0,0,.43-.18.56.56,0,0,0,.19-.43v-2.3a.63.63,0,0,0-.62-.62H7Z"/><path class="cls-1" d="M15.4,18.43h5a.63.63,0,0,1,.61.62.62.62,0,0,1-.18.44.58.58,0,0,1-.43.18H18.52v7.24h1.85a.6.6,0,0,1,.44.18.64.64,0,0,1,.17.44.61.61,0,0,1-.61.61h-5a.61.61,0,0,1-.61-.61.6.6,0,0,1,.18-.44.58.58,0,0,1,.43-.18h1.89V19.67H15.4a.61.61,0,0,1-.61-.61.6.6,0,0,1,.18-.44A.56.56,0,0,1,15.4,18.43Z"/><path class="cls-1" d="M30,19.06v9.08H28.37l-3.3-7.54v6.93a.58.58,0,0,1-.18.43.6.6,0,0,1-.44.18.61.61,0,0,1-.61-.61v-9.1h1.62L28.78,26v-6.9a.6.6,0,0,1,.18-.44.61.61,0,0,1,.45-.19.56.56,0,0,1,.43.19A.6.6,0,0,1,30,19.06Z"/><path class="cls-1" d="M32.86,20.11V18.45h6.2v1.67a.57.57,0,0,1-.19.43.58.58,0,0,1-.43.18.6.6,0,0,1-.44-.18.59.59,0,0,1-.19-.43v-.45H36.57v7.86a.58.58,0,0,1-.18.43.6.6,0,0,1-.43.18.61.61,0,0,1-.45-.18.58.58,0,0,1-.18-.43V19.67H34.09v.44a.58.58,0,0,1-.18.43.6.6,0,0,1-.44.18.61.61,0,0,1-.61-.61Z"/><path class="cls-1" d="M51,27.53v-9.1H55.3a1.86,1.86,0,0,1,1.84,1.86V21a1.79,1.79,0,0,1-.54,1.31,1.77,1.77,0,0,1-1.3.54h-.78L57,27.15a.73.73,0,0,1,.12.38A.56.56,0,0,1,57,28a.63.63,0,0,1-1-.15l-2.87-5H52.2v4.69A.58.58,0,0,1,52,28a.63.63,0,0,1-.45.18.61.61,0,0,1-.61-.61Zm1.23-5.91H55.3a.57.57,0,0,0,.43-.18.6.6,0,0,0,.18-.44v-.71a.6.6,0,0,0-.18-.44.57.57,0,0,0-.43-.18H52.19Z"/><path class="cls-1" d="M66.16,19.06v9.08H64.52L61.21,20.6v6.93a.61.61,0,0,1-.61.61.6.6,0,0,1-.44-.18.58.58,0,0,1-.18-.43v-9.1H61.6L64.92,26v-6.9a.65.65,0,0,1,.63-.63.56.56,0,0,1,.43.19A.6.6,0,0,1,66.16,19.06Z"/><path class="cls-1" d="M69,26.3V19.06a.58.58,0,0,1,.19-.44.56.56,0,0,1,.43-.19.57.57,0,0,1,.43.19.58.58,0,0,1,.18.43V26.3a.58.58,0,0,0,.18.42.6.6,0,0,0,.43.18h2.52a.58.58,0,0,0,.43-.18A.54.54,0,0,0,74,26.3V19.06a.6.6,0,0,1,.18-.44.56.56,0,0,1,.43-.19.58.58,0,0,1,.44.19.6.6,0,0,1,.18.44v7.22a1.76,1.76,0,0,1-.55,1.31,1.73,1.73,0,0,1-1.29.55H70.84A1.84,1.84,0,0,1,69,26.3Zm3.88-10.47a.66.66,0,0,1,.27-.06.54.54,0,0,1,.43.2.6.6,0,0,1,.17.43.56.56,0,0,1-.34.56l-2.23,1a.66.66,0,0,1-.27.06.54.54,0,0,1-.43-.2.65.65,0,0,1-.17-.43.58.58,0,0,1,.34-.56Z"/><path class="cls-1" d="M80.52,22.25v-.32l-1.27-1.81v7.41a.61.61,0,0,1-.61.61A.6.6,0,0,1,78.2,28a.6.6,0,0,1-.18-.43v-9.1h1.59l1.51,2.2,1.56-2.2h1.55v9.1a.58.58,0,0,1-.18.43.63.63,0,0,1-.45.18.61.61,0,0,1-.43-.18.6.6,0,0,1-.18-.43V20.15L81.75,21.9v.35a.61.61,0,0,1-.18.43.6.6,0,0,1-.43.18.6.6,0,0,1-.44-.18A.61.61,0,0,1,80.52,22.25Z"/><path class="cls-1" d="M92.65,19.67H88.32v3h1.87a.6.6,0,0,1,.43.18.62.62,0,0,1,.18.44.6.6,0,0,1-.18.44.58.58,0,0,1-.43.18H88.32v3h4.35a.58.58,0,0,1,.43.18.6.6,0,0,1,.18.44.58.58,0,0,1-.18.43.63.63,0,0,1-.45.18H87.09V18.43h5.56a.6.6,0,0,1,.45.19.6.6,0,0,1,.18.44.58.58,0,0,1-.18.43A.63.63,0,0,1,92.65,19.67Z"/><path class="cls-1" d="M96.14,27.53v-9.1h4.34a1.88,1.88,0,0,1,1.84,1.86V21a1.84,1.84,0,0,1-1.84,1.85H99.7l2.5,4.31a.73.73,0,0,1,.12.38.56.56,0,0,1-.19.43.63.63,0,0,1-1-.15l-2.87-5h-.89v4.69a.56.56,0,0,1-.19.43.6.6,0,0,1-.44.18.61.61,0,0,1-.61-.61Zm1.23-5.91h3.11a.58.58,0,0,0,.43-.18.6.6,0,0,0,.18-.44v-.71a.6.6,0,0,0-.18-.44.58.58,0,0,0-.43-.18H97.37Z"/><path class="cls-1" d="M109.7,19.33l1.35,2.75a2.71,2.71,0,0,1,0,2.44l-1.35,2.72a1.49,1.49,0,0,1-1.46.9,1.58,1.58,0,0,1-.88-.25,1.83,1.83,0,0,1-.59-.65l-1.35-2.72a2.67,2.67,0,0,1-.27-1.22,2.73,2.73,0,0,1,.27-1.22l1.35-2.75a1.55,1.55,0,0,1,1.47-.9A1.5,1.5,0,0,1,109.7,19.33Zm-1.87.61-1.27,2.59a1.94,1.94,0,0,0-.17.76,1.88,1.88,0,0,0,.17.77l1.31,2.61a.37.37,0,0,0,.37.24.38.38,0,0,0,.36-.24l1.32-2.61a1.84,1.84,0,0,0,.18-.77,1.67,1.67,0,0,0-.18-.76l-1.29-2.59a.4.4,0,0,0-.39-.28A.45.45,0,0,0,107.83,19.94Z"/><path class="cls-1" d="M115.58,18.43h3.19a1.61,1.61,0,0,1,1.11.5,1.55,1.55,0,0,1,.52,1.19.63.63,0,0,1-.18.45.59.59,0,0,1-.41.18.58.58,0,0,1-.44-.14,1.86,1.86,0,0,1-.22-.53.46.46,0,0,0-.47-.39h-3c-.14,0-.22,0-.22.14a.37.37,0,0,0,.09.21l4.56,5.81a1.48,1.48,0,0,1,.33.91,1.34,1.34,0,0,1-.39,1,1.22,1.22,0,0,1-.89.42h-3.31a1.7,1.7,0,0,1-1.63-1.6c0-.46.22-.69.64-.69a.58.58,0,0,1,.43.18.61.61,0,0,1,.17.42.44.44,0,0,0,.14.33.45.45,0,0,0,.34.13h3c.13,0,.2-.05.2-.15a.32.32,0,0,0-.09-.19l-4.56-5.82a1.48,1.48,0,0,1-.32-.91,1.38,1.38,0,0,1,.41-1A1.32,1.32,0,0,1,115.58,18.43Z"/></svg>