<?xml version="1.0" encoding="utf-8"?>
<!-- Generator: Adobe Illustrator 23.0.3, SVG Export Plug-In . SVG Version: 6.00 Build 0)  -->
<svg version="1.1" id="Capa_1" xmlns="http://www.w3.org/2000/svg" xmlns:xlink="http://www.w3.org/1999/xlink" x="0px" y="0px"
	 viewBox="0 0 125 43.9" style="enable-background:new 0 0 125 43.9;" xml:space="preserve">
<style type="text/css">
	.st0{fill:#FF4459;}
	.st1{fill:#262D2D;}
	.st2{clip-path:url(#SVGID_3_);}
	.st3{clip-path:url(#SVGID_4_);}
	.st4{fill:none;stroke:#000000;stroke-width:3;stroke-linecap:round;stroke-linejoin:round;stroke-miterlimit:10;}
	.st5{fill:#FFFFFF;}
	.st6{fill:#1C9995;}
	.st7{fill:#FF7F1F;}
</style>
<g>
	<path class="st0" d="M33.5,34.6l0-0.4c0-0.1,0-0.3,0.1-0.5c0.1-0.3,0.2-0.5,0.2-0.7c0-0.2,0.1-0.3,0.1-0.4c0,0,0.1-0.2,0.2-0.5
		c0.1-0.3,0.1-0.5,0.2-0.6c0.1-0.1,0.1-0.3,0.1-0.6c0-0.3,0.1-0.6,0.4-0.8c0-0.2,0-0.5,0.2-0.8c0.2-0.3,0.2-0.6,0.1-0.9
		c0-0.2-0.2-0.2-0.5-0.1l-0.3,0.1l-0.6,0c-0.1,0-0.2,0-0.3,0l-0.2,0l-0.7,0.3c-0.6,0.1-1-0.2-1.2-1.1c-0.1-0.6,0.1-1,0.7-1.1
		l0.8-0.5c0,0,0.1,0,0.3,0.1c0.1,0,0.2,0.1,0.3,0.1l0.3-0.1l1.3-0.2l0.2,0c0.8-0.2,1.1-0.5,1.1-1s0.1-1,0.4-1.4c0,0,0.1-0.1,0.1-0.2
		s0.1-0.4,0.3-0.7c0.2-0.3,0.3-0.6,0.2-0.8c0-0.1-0.3-0.1-0.9,0L36,21.6l-0.4,0c-0.1,0-0.2,0-0.4,0l-0.2,0l-0.6,0.2
		c-0.7,0.1-1.1-0.2-1.3-1.1c-0.1-0.5,0.2-0.9,0.8-1.1l0.3-0.2c0.2-0.1,0.3-0.2,0.4-0.2c0,0,0.1,0,0.2,0c0.1,0,0.5,0,1,0l0.2,0
		c1.3-0.3,1.9-0.6,1.9-0.9c0-0.3,0-0.5,0.1-0.5c0.3-0.5,0.4-0.9,0.5-1.5c0.1-0.5,0.2-0.9,0.4-1.1c-0.1-0.2,0-0.5,0.3-1.1l0-0.3
		c0-0.1,0.1-0.2,0.1-0.3c0.1-0.1,0.1-0.3,0.2-0.6c0.1-0.3,0.1-0.6,0.2-0.7c0-0.1,0.1-0.2,0.1-0.3l0-0.4c0-0.2,0-0.3,0.1-0.4
		c0.1-0.1,0.2-0.3,0.3-0.7l0.1-0.5l0-0.3c0-1.1,0.2-2,0.5-2.7l0-0.6c0-0.1,0.2-0.2,0.5-0.5l0.1-0.2c0.2-0.4,0.3-0.6,0.4-0.7l0.1,0
		l0.7-0.2c0.1,0,0.4,0.1,0.8,0.5c0.4,0.3,0.6,0.6,0.6,0.9c0.2,0.9,0,1.7-0.5,2.6l-0.1,0.9l-0.8,2l-0.2,0.8c0,0.4-0.1,0.7-0.3,0.8
		c-0.2,0.2-0.3,0.3-0.2,0.5c0.1,0.8,0,1.5-0.5,2c-0.1,0.2-0.1,0.4-0.1,0.8c0,0.4-0.1,0.6-0.3,0.8c-0.2,0.2-0.2,0.3-0.2,0.4
		c0,0.1,0.2,0.1,0.5,0c0.3-0.1,0.5-0.1,0.6-0.2c0.1-0.1,0.1-0.1,0.2-0.1c0.1,0,0.1,0,0.2,0c0.1,0,0.2,0,0.2,0c0.1,0,0.1,0,0.2-0.1
		l0.1,0l0.9-0.1c0.1,0,0.1,0,0.1-0.1c0,0,0-0.1,0.1-0.1l0.7,0c0.5-0.1,0.8-0.4,0.9-0.8c0-0.1,0-0.2,0.1-0.3c0.1-0.2,0.1-0.4,0.2-0.6
		c0-0.2,0.1-0.4,0.2-0.5c0.1-0.1,0.1-0.3,0.1-0.6c0-0.3,0.1-0.5,0.2-0.5l0.2-0.2c0-0.1,0-0.3,0.1-0.6c0.1-0.3,0.1-0.5,0.2-0.7
		c0-0.2,0.1-0.4,0.2-0.5c0.1-0.2,0.2-0.4,0.3-0.8c0.1-0.4,0.1-0.6,0.2-0.7l0-0.4c0-0.1,0.1-0.2,0.2-0.4c0.1-0.1,0.2-0.4,0.3-0.7
		l0.1-0.5l0-0.3c0-0.7,0.1-1.3,0.3-1.9c0.1-0.2,0.3-0.7,0.3-1.4l0-0.1c0.3-0.2,0.5-0.5,0.6-0.7c0.1-0.3,0.2-0.4,0.3-0.5l0.1,0
		L50.6,3c0.1,0,0.4,0.1,0.7,0.4c0.4,0.3,0.6,0.6,0.6,0.9C52.2,5.3,52,6.2,51.5,7l-0.1,1c-0.2,0.4-0.4,1.1-0.8,2L50.4,11
		c0,0.2-0.1,0.4-0.3,0.6c-0.2,0.1-0.3,0.3-0.3,0.5c0.2,0.8,0,1.4-0.5,2c-0.1,0.1-0.1,0.3-0.1,0.6c0,0.3,0,0.5-0.1,0.6
		c-0.1,0.2-0.1,0.2-0.1,0.3c0,0.1,0.2,0.1,0.5,0l0.2,0l0.4,0c0.3-0.1,0.4-0.1,0.5-0.2c0.1-0.1,0.2-0.1,0.3-0.1c0.1,0,0.2,0,0.4,0
		c0.2,0,0.5,0,0.7,0c0.2,0,0.4,0,0.4,0.2c0.3,0.3,0.5,0.5,0.5,0.5c0.2,0.7,0,1.3-0.6,1.7c-0.5,0.4-1,0.6-1.4,0.7c-0.1,0-0.3,0-0.4,0
		c-0.1,0-0.3,0-0.3,0l-0.9,0.4l-1.3,0.2c-0.1,0-0.3,0.5-0.6,1.4c-0.3,0.9-0.4,1.5-0.4,1.7c0.1,0.3,0.5,0.3,1.3,0.2l0.6-0.2
		c0.1,0,0.2,0,0.4,0c0.2,0,0.4,0,0.6,0s0.4,0.1,0.6,0.3c0.2,0.2,0.3,0.4,0.3,0.4c0.2,0.7,0,1.3-0.5,1.7c-0.5,0.4-1,0.7-1.5,0.8
		c-0.1,0-0.2,0-0.3,0l-0.4,0l-1.1,0.4c-0.3,0.1-0.4,0.1-0.6,0.1c-0.1,0-0.2,0-0.4,0c-0.1,0-0.2,0.1-0.2,0.3
		c-0.1,0.2-0.2,0.3-0.4,0.5c-0.1,0.1-0.2,0.4-0.1,0.9c0.1,0.5-0.1,1-0.6,1.6c-0.1,0.2-0.1,0.4-0.1,0.8c0,0.4-0.1,0.7-0.3,0.9
		c-0.2,0.2-0.3,0.4-0.3,0.6c0.2,0.8-0.1,1.5-0.7,2.2c-0.1,0.1-0.1,0.2,0,0.3c0.1,0.4,0,1-0.2,1.6c-0.3,0.7-0.4,1.1-0.5,1.4l-0.3,0.5
		c0,0.1-0.1,0.5-0.2,1c-0.1,0.6-0.4,0.9-0.8,1c-0.2,0-0.5,0-0.9-0.1c-0.4-0.1-0.7-0.4-0.8-0.8l0-0.3c0.1-0.2,0.1-0.4,0.1-0.7
		c0-0.3,0.1-0.5,0.3-0.8c0.5-1.3,0.9-2.5,1.2-3.7l-0.1-0.4c0,0,0.1-0.4,0.3-1c0.2-0.7,0.4-1.2,0.4-1.6c0.1,0,0.1-0.3,0.2-0.6
		c0.1-0.4,0.2-0.6,0.4-0.8c0-0.2,0-0.5,0.2-0.8c0.1-0.3,0.2-0.6,0.2-0.7c0-0.2-0.4-0.2-1.2-0.2c0,0-0.1,0-0.2,0
		c-0.2,0-0.4,0.1-0.5,0.2c-0.1,0.1-0.3,0.2-0.4,0.2c-0.1,0-0.3,0-0.4,0c-0.2,0-0.3-0.1-0.4-0.1c-1.3,0.7-1.9,1.2-1.8,1.7
		c0.1,0.8,0.1,1.3-0.2,1.7c-0.3,0.4-0.4,0.7-0.4,1.1c0,0.4-0.1,0.7-0.3,0.9c-0.2,0.2-0.3,0.4-0.3,0.6c0.1,0.8-0.1,1.6-0.7,2.2
		c-0.1,0.1-0.1,0.2-0.1,0.3c0.1,0.3,0,0.8-0.2,1.3c-0.2,0.5-0.4,1.1-0.5,1.7l-0.3,0.5c0,0.1-0.1,0.5-0.2,1c-0.1,0.6-0.4,0.9-0.8,1
		c-0.1,0-0.2,0-0.3,0l-0.4-0.1c-0.6,0-0.9-0.2-1-0.7c0-0.1,0-0.4,0-0.9c0-0.6,0.1-0.9,0.3-1c0.1-0.4,0.2-0.6,0.3-0.7
		c0.1-0.1,0.2-0.3,0.2-0.5L33.5,34.6z M43.3,23.7l0.5-0.1c0.1-0.2,0.2-0.5,0.2-0.9c0-0.5,0.1-0.8,0.2-0.9c0.1-0.1,0.2-0.3,0.2-0.6
		c0.3-0.5,0.5-0.8,0.4-1.1c0-0.1-0.2-0.2-0.5-0.1l-0.9,0c0,0-0.1,0-0.2,0c-0.2,0-0.4,0.1-0.5,0.2c-0.1,0.1-0.3,0.1-0.4,0.2
		c-0.1,0-0.4,0-0.8-0.2l-0.1,0l-0.7,0.4c-0.5,0.3-0.9,1-1.1,2c-0.2,1-0.3,1.6-0.3,1.8c0,0.1,0.1,0.2,0.4,0.1c0.1,0,0.3-0.1,0.4-0.1
		c0.1-0.1,0.3-0.1,0.3-0.1c0,0,0.2,0,0.4,0.1l0.2-0.2l0.3-0.1L42,24c0.1,0,0.2-0.1,0.3-0.1l0.1,0c0,0,0.1,0,0.3,0c0,0,0.1,0,0.3,0
		C43.1,23.8,43.3,23.8,43.3,23.7z"/>
</g>
<g>
	<path class="st1" d="M3.1,27.7v-9.3h4.5c0.5,0,1,0.2,1.3,0.6c0.4,0.4,0.6,0.8,0.6,1.3v2.4c0,0.5-0.2,1-0.6,1.3
		c-0.4,0.4-0.8,0.6-1.3,0.6H4.4v3.2c0,0.2-0.1,0.3-0.2,0.4c-0.1,0.1-0.3,0.2-0.4,0.2c-0.2,0-0.3-0.1-0.5-0.2
		C3.2,28,3.1,27.8,3.1,27.7z M4.4,23.2h3.2c0.2,0,0.3-0.1,0.4-0.2c0.1-0.1,0.2-0.3,0.2-0.4v-2.4c0-0.2-0.1-0.3-0.2-0.4
		c-0.1-0.1-0.3-0.2-0.4-0.2H4.4V23.2z"/>
	<path class="st1" d="M13,18.4H18c0.2,0,0.3,0.1,0.4,0.2c0.1,0.1,0.2,0.3,0.2,0.4c0,0.2-0.1,0.3-0.2,0.5c-0.1,0.1-0.3,0.2-0.4,0.2
		h-1.9V27H18c0.2,0,0.3,0.1,0.4,0.2s0.2,0.3,0.2,0.4s-0.1,0.3-0.2,0.4c-0.1,0.1-0.3,0.2-0.4,0.2H13c-0.2,0-0.3-0.1-0.4-0.2
		c-0.1-0.1-0.2-0.3-0.2-0.4s0.1-0.3,0.2-0.4S12.8,27,13,27h1.9v-7.4H13c-0.2,0-0.3-0.1-0.4-0.2c-0.1-0.1-0.2-0.3-0.2-0.4
		c0-0.2,0.1-0.3,0.2-0.5C12.6,18.4,12.8,18.4,13,18.4z"/>
	<path class="st1" d="M27.9,19v9.3h-1.7l-3.4-7.7v7.1c0,0.2-0.1,0.3-0.2,0.4c-0.1,0.1-0.3,0.2-0.4,0.2c-0.2,0-0.3-0.1-0.4-0.2
		c-0.1-0.1-0.2-0.3-0.2-0.4v-9.3h1.7l3.4,7.7V19c0-0.2,0.1-0.3,0.2-0.5c0.1-0.1,0.3-0.2,0.5-0.2s0.3,0.1,0.4,0.2
		C27.8,18.7,27.9,18.8,27.9,19z"/>
	<path class="st1" d="M30.8,20.1v-1.7h6.3v1.7c0,0.2-0.1,0.3-0.2,0.4s-0.3,0.2-0.4,0.2c-0.2,0-0.3-0.1-0.5-0.2
		c-0.1-0.1-0.2-0.3-0.2-0.4v-0.5h-1.3v8c0,0.2-0.1,0.3-0.2,0.4c-0.1,0.1-0.3,0.2-0.4,0.2c-0.2,0-0.3-0.1-0.5-0.2
		c-0.1-0.1-0.2-0.3-0.2-0.4v-8h-1.3v0.4c0,0.2-0.1,0.3-0.2,0.4s-0.3,0.2-0.4,0.2s-0.3-0.1-0.4-0.2S30.8,20.2,30.8,20.1z"/>
	<path class="st1" d="M49.3,27.7v-9.3h4.4c0.5,0,1,0.2,1.3,0.6s0.6,0.8,0.6,1.3V21c0,0.5-0.2,1-0.6,1.3c-0.4,0.4-0.8,0.6-1.3,0.6H53
		l2.6,4.4c0.1,0.1,0.1,0.3,0.1,0.4c0,0.2-0.1,0.3-0.2,0.4c-0.1,0.1-0.3,0.2-0.4,0.2c-0.2,0-0.4-0.1-0.6-0.3l-2.9-5.1h-0.9v4.8
		c0,0.2-0.1,0.3-0.2,0.4c-0.1,0.1-0.3,0.2-0.5,0.2s-0.3-0.1-0.4-0.2C49.4,28,49.3,27.8,49.3,27.7z M50.6,21.6h3.2
		c0.2,0,0.3-0.1,0.4-0.2c0.1-0.1,0.2-0.3,0.2-0.4v-0.7c0-0.2-0.1-0.3-0.2-0.4c-0.1-0.1-0.3-0.2-0.4-0.2h-3.2V21.6z"/>
	<path class="st1" d="M64.9,19v9.3h-1.7l-3.4-7.7v7.1c0,0.2-0.1,0.3-0.2,0.4c-0.1,0.1-0.3,0.2-0.4,0.2c-0.2,0-0.3-0.1-0.4-0.2
		c-0.1-0.1-0.2-0.3-0.2-0.4v-9.3h1.7l3.4,7.7V19c0-0.2,0.1-0.3,0.2-0.5c0.1-0.1,0.3-0.2,0.5-0.2s0.3,0.1,0.4,0.2
		C64.8,18.7,64.9,18.8,64.9,19z"/>
	<path class="st1" d="M67.8,26.4V19c0-0.2,0.1-0.3,0.2-0.5c0.1-0.1,0.3-0.2,0.4-0.2s0.3,0.1,0.4,0.2c0.1,0.1,0.2,0.3,0.2,0.4v7.4
		c0,0.2,0.1,0.3,0.2,0.4c0.1,0.1,0.3,0.2,0.4,0.2h2.6c0.2,0,0.3-0.1,0.4-0.2c0.1-0.1,0.2-0.3,0.2-0.4V19c0-0.2,0.1-0.3,0.2-0.5
		c0.1-0.1,0.3-0.2,0.4-0.2s0.3,0.1,0.4,0.2c0.1,0.1,0.2,0.3,0.2,0.5v7.4c0,0.5-0.2,1-0.6,1.3c-0.4,0.4-0.8,0.6-1.3,0.6h-2.6
		c-0.5,0-1-0.2-1.3-0.6C68,27.4,67.8,26.9,67.8,26.4z M71.8,15.7c0.1,0,0.2-0.1,0.3-0.1c0.2,0,0.3,0.1,0.4,0.2
		c0.1,0.1,0.2,0.3,0.2,0.4c0,0.3-0.1,0.5-0.4,0.6L70,17.9c-0.1,0-0.2,0.1-0.3,0.1c-0.2,0-0.3-0.1-0.4-0.2s-0.2-0.3-0.2-0.4
		c0-0.3,0.1-0.5,0.4-0.6L71.8,15.7z"/>
	<path class="st1" d="M79.6,22.3v-0.3l-1.3-1.9v7.6c0,0.2-0.1,0.3-0.2,0.4c-0.1,0.1-0.3,0.2-0.4,0.2s-0.3-0.1-0.4-0.2
		C77.1,28,77,27.8,77,27.7v-9.3h1.6l1.5,2.3l1.6-2.3h1.6v9.3c0,0.2-0.1,0.3-0.2,0.4c-0.1,0.1-0.3,0.2-0.5,0.2
		c-0.2,0-0.3-0.1-0.4-0.2c-0.1-0.1-0.2-0.3-0.2-0.4v-7.5l-1.3,1.8v0.4c0,0.2-0.1,0.3-0.2,0.4c-0.1,0.1-0.3,0.2-0.4,0.2
		c-0.2,0-0.3-0.1-0.4-0.2S79.6,22.4,79.6,22.3z"/>
	<path class="st1" d="M92,19.6h-4.4v3.1h1.9c0.2,0,0.3,0.1,0.4,0.2s0.2,0.3,0.2,0.4c0,0.2-0.1,0.3-0.2,0.5c-0.1,0.1-0.3,0.2-0.4,0.2
		h-1.9V27H92c0.2,0,0.3,0.1,0.4,0.2s0.2,0.3,0.2,0.4s-0.1,0.3-0.2,0.4c-0.1,0.1-0.3,0.2-0.5,0.2h-5.7v-9.9H92c0.2,0,0.3,0.1,0.5,0.2
		c0.1,0.1,0.2,0.3,0.2,0.5c0,0.2-0.1,0.3-0.2,0.4C92.3,19.6,92.2,19.6,92,19.6z"/>
	<path class="st1" d="M95.6,27.7v-9.3h4.4c0.5,0,1,0.2,1.3,0.6c0.4,0.4,0.6,0.8,0.6,1.3V21c0,0.5-0.2,1-0.6,1.3
		c-0.4,0.4-0.8,0.6-1.3,0.6h-0.8l2.6,4.4c0.1,0.1,0.1,0.3,0.1,0.4c0,0.2-0.1,0.3-0.2,0.4c-0.1,0.1-0.3,0.2-0.4,0.2
		c-0.2,0-0.4-0.1-0.6-0.3l-2.9-5.1h-0.9v4.8c0,0.2-0.1,0.3-0.2,0.4c-0.1,0.1-0.3,0.2-0.5,0.2c-0.2,0-0.3-0.1-0.4-0.2
		C95.6,28,95.6,27.8,95.6,27.7z M96.8,21.6h3.2c0.2,0,0.3-0.1,0.4-0.2s0.2-0.3,0.2-0.4v-0.7c0-0.2-0.1-0.3-0.2-0.4s-0.3-0.2-0.4-0.2
		h-3.2V21.6z"/>
	<path class="st1" d="M109.5,19.3l1.4,2.8c0.2,0.4,0.3,0.8,0.3,1.2c0,0.4-0.1,0.9-0.3,1.2l-1.4,2.8c-0.3,0.6-0.8,0.9-1.5,0.9
		c-0.3,0-0.6-0.1-0.9-0.3c-0.3-0.2-0.5-0.4-0.6-0.7l-1.4-2.8c-0.2-0.4-0.3-0.8-0.3-1.2s0.1-0.9,0.3-1.2l1.4-2.8
		c0.3-0.6,0.8-0.9,1.5-0.9C108.7,18.4,109.2,18.7,109.5,19.3z M107.5,19.9l-1.3,2.6c-0.1,0.3-0.2,0.5-0.2,0.8c0,0.3,0.1,0.5,0.2,0.8
		l1.3,2.7c0.1,0.2,0.2,0.2,0.4,0.2c0.2,0,0.3-0.1,0.4-0.2l1.3-2.7c0.1-0.3,0.2-0.5,0.2-0.8c0-0.3-0.1-0.5-0.2-0.8l-1.3-2.6
		c-0.1-0.2-0.2-0.3-0.4-0.3S107.6,19.7,107.5,19.9z"/>
	<path class="st1" d="M115.5,18.4h3.3c0.4,0,0.8,0.2,1.1,0.5c0.4,0.3,0.5,0.7,0.5,1.2c0,0.2-0.1,0.3-0.2,0.5s-0.3,0.2-0.4,0.2
		c-0.2,0-0.4,0-0.4-0.1c-0.1-0.1-0.2-0.3-0.2-0.5c-0.1-0.3-0.2-0.4-0.5-0.4h-3.1c-0.1,0-0.2,0-0.2,0.1c0,0.1,0,0.1,0.1,0.2l4.7,6
		c0.2,0.3,0.3,0.6,0.3,0.9c0,0.4-0.1,0.7-0.4,1s-0.6,0.4-0.9,0.4h-3.4c-0.4,0-0.8-0.2-1.2-0.5s-0.5-0.7-0.5-1.1
		c0-0.5,0.2-0.7,0.7-0.7c0.2,0,0.3,0.1,0.4,0.2s0.2,0.3,0.2,0.4c0,0.1,0,0.2,0.1,0.3c0.1,0.1,0.2,0.1,0.3,0.1h3.1
		c0.1,0,0.2-0.1,0.2-0.2c0,0,0-0.1-0.1-0.2l-4.7-6c-0.2-0.3-0.3-0.6-0.3-0.9c0-0.4,0.1-0.7,0.4-1C114.7,18.5,115.1,18.4,115.5,18.4z
		"/>
</g>
</svg>
